<defs>
<font horiz-adv-x="863" ><font-face
    font-family="tuffy-italic"
    units-per-em="2048"
    panose-1="2 11 6 3 6 1 0 0 0 0"
    ascent="1993"
    descent="-449"
    alphabetic="0" />
<missing-glyph horiz-adv-x="-32768" />
<glyph unicode=" " glyph-name="space" horiz-adv-x="616" />
<glyph unicode="!" glyph-name="exclam" horiz-adv-x="421" d="M375 440Q369 415 348 398T304 381Q283 382 270 394T256 426Q256 433 258 440L418 1389Q427 1428 462 1455T536 1483Q571 1483 595 1461T620 1406Q620 1399 618 1391L375 440ZM123 94Q133 139 171
170T254 202Q292 202 316 178T341 117Q341 106 338 94Q328 50 290 19T208 -13Q169 -13 145 11T121 72Q121 87 123 94Z" />
<glyph unicode="&quot;" glyph-name="quotedbl" horiz-adv-x="690" d="M674 1092L734 1466Q741 1501 767 1521T822 1542H826Q850 1542 867 1529T885 1482Q885 1482 883 1466L783 1092Q777 1070 758 1057T718 1044Q700 1044 687 1053T674 1081Q674 1082 674 1082Q674
1086 674 1092ZM382 1092L441 1466Q448 1501 474 1521T529 1542H533Q558 1542 575 1528T593 1486Q593 1480 591 1466L490 1092Q484 1070 465 1057T425 1044Q407 1044 394 1053T381 1081Q381 1089 382 1092Z" />
<glyph unicode="#" glyph-name="numbersign" horiz-adv-x="1589" d="M1085 547L1157 885H815L743 547H1085ZM1204 406L1129 53H980L1055 406H713L638 53H488L563 406H215L245 547H593L665 885H317L347 1024H695L775 1403H925L845 1024H1187L1267 1403H1416L1336
1024H1697L1667 885H1306L1234 547H1595L1565 406H1204Z" />
<glyph unicode="$" glyph-name="dollar" horiz-adv-x="1017" d="M780 1537H909L882 1411Q1086 1395 1184 1168L1042 1088Q1022 1153 973 1203T851 1264L747 775Q764 768 792 757T838 738T882 720T924 699T962 675T997 647T1024 615T1047 576T1060 531T1065 477Q1065
434 1054 383Q1020 219 890 106T576 -26L549 -155H422L449 -26Q369 -19 311 2T210 63T140 149T82 266L234 346Q252 304 263 281T296 224T341 172T400 138T480 117L598 672Q531 689 480 711T386 768T320 851T297 963Q297 1004 307 1051Q329 1154 397 1234T557 1359T752
1409L780 1537ZM629 817L725 1270Q630 1258 560 1200T469 1051Q461 1015 461 985Q461 913 503 876T629 817ZM716 630L607 119Q719 137 794 207T892 383Q898 408 898 432Q898 498 853 549T716 630Z" />
<glyph unicode="%" glyph-name="percent" horiz-adv-x="1402" d="M970 373Q966 354 966 334Q966 283 996 251T1079 219Q1140 219 1192 263T1259 373Q1263 393 1262 404Q1262 455 1230 488T1143 522Q1085 522 1034 478T970 373ZM841 373Q865 485 961 564T1171 643Q1269
643 1331 582T1394 429Q1394 402 1388 373Q1364 261 1267 183T1056 104Q958 104 897 164T835 316Q835 343 841 373ZM460 1077Q456 1060 456 1039Q457 987 487 956T571 924Q632 924 684 967T751 1077Q753 1089 755 1109Q755 1159 722 1193T636 1227Q578 1227 526
1182T460 1077ZM333 1077Q357 1190 453 1269T664 1348Q762 1348 824 1287T886 1133Q886 1106 880 1077Q856 965 759 887T549 809Q451 809 389 869T327 1021Q327 1048 333 1077ZM453 137H303L1275 1319H1419L453 137Z" />
<glyph unicode="&amp;" glyph-name="ampersand" horiz-adv-x="1241" d="M1066 1200Q1044 1275 997 1313T854 1352Q755 1352 673 1288T568 1120Q562 1093 562 1068Q562 983 618 930T753 877H854L824 735H727Q584 735 483 656T349 430Q341 391 341 355Q341 280 375
224T465 141T585 113Q709 113 811 201T939 408H744L773 547H1275L1245 406H1104Q1093 354 1065 297T987 181T876 76T730 0T555 -29Q450 -29 365 18T230 149T181 338Q181 383 191 430Q208 510 250 581T343 698T445 774T538 813Q478 841 440 898T401 1038Q401 1077
410 1120Q425 1191 467 1258T571 1377T714 1461T884 1493Q1015 1493 1100 1429T1215 1266L1066 1200Z" />
<glyph unicode="&apos;" glyph-name="quotesingle" horiz-adv-x="382" d="M382 1092L441 1466Q448 1501 474 1521T529 1542H533Q558 1542 575 1528T593 1486Q593 1480 591 1466L490 1092Q484 1070 465 1057T425 1044Q407 1044 394 1053T381 1081Q381 1089 382 1092Z" />
<glyph unicode="(" glyph-name="parenleft" horiz-adv-x="548" d="M261 -84Q163 138 163 414Q163 575 198 739Q241 939 348 1154T608 1550H786Q441 1168 348 729Q320 598 320 462Q320 165 439 -84H261Z" />
<glyph unicode=")" glyph-name="parenright" horiz-adv-x="536" d="M248 -84H72Q239 102 352 315T509 727Q536 853 536 991Q536 1143 505 1288T419 1550H595Q692 1323 692 1033Q692 876 661 727Q616 516 511 307T248 -84Z" />
<glyph unicode="*" glyph-name="asterisk" horiz-adv-x="913" d="M572 518L411 294Q384 254 341 254Q319 254 302 266Q276 283 276 314Q276 321 277 328Q281 347 297 369L477 576L228 562Q204 562 186 575T167 617Q167 627 169 638Q176 671 201 691T260 712L506
698L414 906Q407 926 411 948Q418 986 463 1009Q486 1021 506 1021Q548 1021 560 981L623 762L779 979Q808 1019 849 1019Q870 1019 887 1007Q915 989 915 959Q915 953 914 946Q908 922 893 904L714 698L964 712Q993 712 1010 697T1027 655Q1027 647 1025 638Q1016
597 989 580T932 562L691 576L782 371Q790 350 785 330Q777 290 734 268Q711 256 690 256Q668 256 654 268T636 296L572 518Z" />
<glyph unicode="+" glyph-name="plus" horiz-adv-x="894" d="M229 711H536L602 1022H743L677 711H985L955 569H647L581 258H440L506 569H199L229 711Z" />
<glyph unicode="," glyph-name="comma" horiz-adv-x="399" d="M338 94Q329 50 310 6T264 -76T219 -138T175 -191T148 -221L99 -190Q193 -86 208 -12Q169 -12 145 11T121 72Q121 87 123 94Q133 139 171 170T254 202Q292 202 316 178T341 117Q341 106 338 94Z" />
<glyph unicode="-" glyph-name="hyphen" horiz-adv-x="866" d="M259 705H936L906 563H229L259 705Z" />
<glyph unicode="." glyph-name="period" horiz-adv-x="405" d="M123 94Q133 139 171 170T254 202Q292 202 316 178T341 117Q341 106 338 94Q328 50 290 19T208 -13Q169 -13 145 11T121 72Q121 87 123 94Z" />
<glyph unicode="/" glyph-name="slash" horiz-adv-x="808" d="M135 0H-23L1022 1544H1180L135 0Z" />
<glyph unicode="0" glyph-name="zero" horiz-adv-x="1136" d="M255 727Q288 881 350 1019T495 1263T683 1431T899 1493Q1064 1493 1149 1361T1235 1011Q1235 873 1204 727Q1160 520 1070 351T847 76T567 -29Q455 -29 377 34T262 203T225 450Q225 591 255 727ZM413
727Q384 593 384 472Q384 396 396 333T432 220T499 141T597 113Q662 113 724 150T835 249T926 391T998 556T1046 727Q1075 871 1075 989Q1075 994 1075 999V1004Q1075 1078 1064 1139T1029 1249T965 1325T869 1352Q789 1352 713 1295T579 1144T479 944T413 727Z"
/>
<glyph unicode="1" glyph-name="one" horiz-adv-x="1136" d="M838 1206H680L956 1456H1048L739 0H582L838 1206Z" />
<glyph unicode="2" glyph-name="two" horiz-adv-x="1136" d="M498 1110L371 1165Q439 1303 588 1399T887 1495Q957 1495 1017 1476T1124 1418T1199 1317T1226 1173Q1226 1117 1213 1053Q1202 1002 1178 953T1125 865T1056 786T980 718T900 659T826 611T758 571T707
541Q593 470 468 350T323 141H1046L1016 0H109Q129 94 173 181T272 336T400 468T541 580T689 676Q702 684 738 705T793 738T848 774T905 816T955 863T1002 919T1036 981T1060 1053Q1069 1094 1069 1132Q1069 1236 1008 1295T857 1354Q757 1354 658 1291T498 1110Z"
/>
<glyph unicode="3" glyph-name="three" horiz-adv-x="1126" d="M167 252L332 299Q352 217 420 165T571 113Q710 113 824 198T969 424Q977 459 977 492Q977 567 938 622T839 704T706 731H628L655 856H753Q850 856 937 930T1048 1116Q1053 1141 1053 1165Q1053 1248
997 1303T858 1358H852Q772 1358 702 1316T585 1200L462 1264Q537 1369 650 1433T887 1497Q976 1497 1050 1460T1169 1353T1214 1193Q1214 1155 1206 1116Q1181 998 1105 913T955 795Q985 785 1016 761T1074 700T1117 612T1134 503Q1134 464 1126 424Q1084 228
916 100T541 -29Q416 -29 305 47T167 252Z" />
<glyph unicode="4" glyph-name="four" horiz-adv-x="1136" d="M1171 1445L978 537H1167L1137 397H948L864 0H707L791 397H172L1003 1456H1016H1173L1171 1445ZM971 1221L439 539H826L971 1221Z" />
<glyph unicode="5" glyph-name="five" horiz-adv-x="1136" d="M776 807Q720 807 670 796T589 768T532 736T495 711L366 786L602 1456H1274L1245 1315H704L547 887Q649 942 804 942Q967 942 1063 845T1160 584Q1160 523 1147 459Q1104 258 949 115T592 -29Q422
-29 319 69T205 330L367 358Q398 113 622 113Q754 113 856 209T991 461Q1000 504 1000 544Q1000 658 937 732T776 807Z" />
<glyph unicode="6" glyph-name="six" horiz-adv-x="1136" d="M966 408Q972 440 972 471Q972 574 905 641T724 709Q595 709 493 619T367 412Q359 377 359 349Q359 247 427 184T601 121Q734 121 838 208T966 408ZM612 827Q692 858 755 858Q917 858 1021 758T1125
502Q1125 454 1115 408Q1098 330 1049 253T929 112T762 10T565 -29Q454 -29 371 20T248 149T207 323Q207 366 216 410Q228 468 252 525T312 638T371 727T435 811T482 870L940 1454H1095L612 827Z" />
<glyph unicode="7" glyph-name="seven" horiz-adv-x="1136" d="M1388 1456L524 0H342L1136 1307H389L420 1456H1388Z" />
<glyph unicode="8" glyph-name="eight" horiz-adv-x="1136" d="M606 113Q743 113 860 206T1005 432Q1011 461 1013 498Q1013 608 936 673T743 739Q603 739 494 657T354 432Q348 403 346 364Q347 253 420 183T606 113ZM571 1124Q564 1095 564 1065Q564 979 620
930T773 881Q884 881 968 946T1077 1124Q1083 1154 1082 1178Q1082 1259 1028 1307T872 1356Q754 1356 673 1290T571 1124ZM902 1497Q1055 1497 1148 1415T1242 1201Q1242 1196 1242 1192Q1242 1161 1234 1124Q1191 919 979 807Q1013 790 1043 766T1104 706T1153
620T1172 512Q1172 476 1163 432Q1136 303 1046 197T831 31T576 -29Q405 -29 296 74T185 336Q187 388 196 432Q213 510 252 577T343 688T440 761T532 807Q403 892 403 1037Q403 1078 413 1124Q447 1283 586 1390T902 1497Z" />
<glyph unicode="9" glyph-name="nine" horiz-adv-x="1136" d="M517 1053Q510 1022 510 989Q510 887 577 820T758 752Q887 752 989 841T1116 1049Q1123 1087 1122 1111Q1122 1213 1054 1277T881 1341Q749 1341 645 1253T517 1053ZM870 633Q790 602 726 602Q564
602 461 702T357 958Q357 1006 367 1053Q384 1131 433 1209T554 1350T721 1452T917 1491Q1028 1491 1111 1441T1234 1312T1275 1138Q1275 1092 1265 1051Q1255 1002 1234 951T1193 861T1140 775T1089 704T1038 639T999 590L550 0H382L870 633Z" />
<glyph unicode=":" glyph-name="colon" horiz-adv-x="423" d="M288 823Q298 868 336 899T419 931Q457 931 481 907T506 846Q506 835 503 823Q493 779 455 748T373 716Q334 716 310 740T286 801Q286 816 288 823ZM133 94Q143 139 181 170T264 202Q302 202 326 178T351
117Q351 106 348 94Q338 50 300 19T218 -13Q179 -13 155 11T131 72Q131 87 133 94Z" />
<glyph unicode=";" glyph-name="semicolon" horiz-adv-x="423" d="M348 94Q339 50 320 6T274 -76T229 -138T185 -191T158 -221L109 -190Q203 -86 218 -12Q179 -12 155 11T131 72Q131 87 133 94Q143 139 181 170T264 202Q302 202 326 178T351 117Q351 106 348 94ZM288
823Q298 868 336 899T419 931Q457 931 481 907T506 846Q506 835 503 823Q493 779 455 748T373 716Q334 716 310 740T286 801Q286 816 288 823Z" />
<glyph unicode="&lt;" glyph-name="less" horiz-adv-x="843" d="M597 23L219 635L855 1235H1054L416 633L796 23H597Z" />
<glyph unicode="=" glyph-name="equal" horiz-adv-x="907" d="M172 500H972L942 358H142L172 500ZM250 866H1050L1020 725H220L250 866Z" />
<glyph unicode="&gt;" glyph-name="greater" horiz-adv-x="856" d="M295 20H96L735 633L355 1235H554L932 635L295 20Z" />
<glyph unicode="?" glyph-name="question" horiz-adv-x="985" d="M679 501L650 360H493L523 505Q533 550 552 589T591 656T645 714T703 761T767 807T829 852Q866 880 878 889T917 924T957 969T984 1022T1007 1094Q1014 1129 1014 1161Q1014 1254 952 1305T784
1356Q662 1356 558 1267T434 1085L293 1110Q347 1274 492 1385T807 1497Q882 1497 947 1478T1064 1422T1145 1326T1175 1191Q1175 1147 1165 1098Q1129 927 964 791Q929 762 874 727T786 669T723 604T679 501ZM416 94Q426 139 464 170T547 202Q586 202 610 178T634
117Q634 106 631 94Q621 50 583 19T501 -13Q462 -13 438 11T414 72Q414 87 416 94Z" />
<glyph unicode="@" glyph-name="at" horiz-adv-x="1624" d="M1221 213L1277 111Q1046 -35 798 -35Q617 -35 475 44T256 260T179 569Q179 646 196 731Q240 939 379 1114T717 1392T1123 1495Q1259 1495 1376 1449T1574 1323T1699 1138T1745 913Q1745 845 1731 782Q1715
707 1674 638T1580 521T1473 446T1373 418Q1318 418 1264 446T1179 518Q1122 458 1045 424T888 389Q766 389 689 466T610 660Q610 693 618 731Q648 871 769 971T1033 1071Q1151 1071 1221 995T1292 805Q1292 768 1283 731Q1280 713 1280 693Q1280 635 1312 591T1394
547Q1450 547 1516 618T1602 782Q1613 835 1613 884Q1613 979 1576 1066T1474 1221T1310 1328T1096 1368Q964 1368 835 1316T602 1177T425 972T323 727Q309 665 309 597Q309 381 452 237T825 92Q918 92 1026 126T1221 213ZM747 731Q744 716 742 684Q742 610 790
563T915 516Q1005 516 1072 578T1159 731Q1163 750 1163 772Q1163 843 1118 894T1006 946Q922 946 844 883T747 731Z" />
<glyph unicode="A" glyph-name="A" horiz-adv-x="1302" d="M917 1214L587 621H1002L917 1214ZM1010 485H513L248 0H72L905 1456H1032L1247 0H1067L1010 485Z" />
<glyph unicode="B" glyph-name="B" horiz-adv-x="1179" d="M429 705L309 141H628Q795 141 895 225T1021 430Q1028 462 1028 486Q1028 488 1028 491T1028 496Q1028 589 960 647T748 705H429ZM559 1317L458 844H695Q797 844 873 867T990 929T1051 1004T1079 1079Q1085
1103 1085 1130Q1085 1165 1073 1195T1031 1253T941 1298T796 1315Q781 1315 680 1316T559 1317ZM430 1456H825Q920 1456 994 1439T1116 1393T1193 1324T1236 1243T1248 1156Q1246 1109 1239 1079Q1214 962 1112 872T922 782Q980 782 1026 764T1100 718T1148 652T1174
576T1182 499Q1182 497 1182 493T1182 486Q1182 454 1175 424Q1164 374 1146 327T1085 217T982 109T822 32T598 0H121L430 1456Z" />
<glyph unicode="C" glyph-name="C" horiz-adv-x="1220" d="M1229 293Q1191 229 1142 175T1027 73T875 -2T694 -29Q598 -29 520 -2T389 72T299 186T246 330T229 498Q229 607 254 725Q279 844 325 954T442 1164T597 1336T791 1452T1020 1495Q1096 1495 1159 1477T1265
1428T1338 1358T1385 1277T1407 1194L1249 1153Q1239 1244 1167 1299T990 1354H988Q884 1354 788 1300T620 1156T497 955T420 725Q399 628 399 536Q399 414 434 320T544 168T724 111Q830 111 935 176T1091 334L1229 293Z" />
<glyph unicode="D" glyph-name="D" horiz-adv-x="1220" d="M1142 727Q1161 818 1161 905Q1161 970 1151 1027T1114 1138T1048 1230T946 1292T804 1315H559L309 141H554Q681 141 781 183T951 305T1067 488T1142 727ZM1308 727Q1264 521 1162 358T904 98T565 0H121L430
1456H874Q987 1456 1075 1415T1218 1301T1301 1134T1330 928Q1330 830 1308 727Z" />
<glyph unicode="E" glyph-name="E" horiz-adv-x="1142" d="M430 1456H1351L1322 1315H559L453 817H1173L1143 676H423L309 141H1072L1042 0H121L430 1456Z" />
<glyph unicode="F" glyph-name="F" horiz-adv-x="1146" d="M430 1456H1351L1322 1315H559L453 817H1173L1143 676H423L279 0H121L430 1456Z" />
<glyph unicode="G" glyph-name="G" horiz-adv-x="1363" d="M694 -29Q602 -29 526 -2T395 75T304 193T249 342T231 514Q231 620 255 731Q277 836 322 941T438 1147T593 1324T790 1448T1020 1495Q1179 1495 1267 1435T1405 1260L1252 1192Q1212 1273 1154 1313T990
1354Q907 1354 827 1316T682 1214T564 1069T475 901T421 731Q401 638 401 547Q401 476 413 413T450 294T513 198T604 135T724 111Q808 111 882 141T1007 219T1098 327T1161 444T1195 555H802L832 696H1381L1363 610Q1344 520 1307 432T1210 260T1077 112T906 10T700
-29H694Z" />
<glyph unicode="H" glyph-name="H" horiz-adv-x="1198" d="M430 1456H588L452 815H1113L1249 1456H1407L1098 0H940L1083 674H422L279 0H121L430 1456Z" />
<glyph unicode="I" glyph-name="I" horiz-adv-x="444" d="M154 0L463 1456H620L311 0H154Z" />
<glyph unicode="J" glyph-name="J" horiz-adv-x="1140" d="M227 535H368Q358 490 356 430Q356 302 418 212T591 121Q683 121 767 183T907 339T984 535L1179 1456H1337L1142 535Q1089 289 927 130T559 -29Q394 -29 302 84T209 378Q209 452 227 535Z" />
<glyph unicode="K" glyph-name="K" horiz-adv-x="1239" d="M430 1456H588L428 702L1335 1456H1528L742 803L1235 0H1028L616 702L389 516L279 0H121L430 1456Z" />
<glyph unicode="L" glyph-name="L" horiz-adv-x="1105" d="M430 1456H588L309 141H1074L1044 0H121L430 1456Z" />
<glyph unicode="M" glyph-name="M" horiz-adv-x="1562" d="M121 0L430 1456H645L839 209L1564 1456H1771L1462 0H1309L1565 1204L884 16H705L530 1204L274 0H121Z" />
<glyph unicode="N" glyph-name="N" horiz-adv-x="1271" d="M121 0L430 1456H583L1077 295L1323 1456H1480L1171 0H1026L532 1190L279 0H121Z" />
<glyph unicode="O" glyph-name="O" horiz-adv-x="1333" d="M1250 725Q1275 845 1275 952Q1275 1035 1259 1104T1209 1231T1112 1321T964 1354Q871 1354 789 1314T647 1211T539 1063T460 895T412 725Q388 613 388 507Q388 425 404 358T455 234T552 145T700 113Q793
113 875 151T1016 251T1124 394T1202 558T1250 725ZM246 725Q268 826 309 929T416 1135T565 1317T759 1445T994 1495Q1091 1495 1168 1464T1296 1382T1379 1259T1426 1112T1440 950Q1440 839 1416 725Q1398 642 1366 558T1288 388T1178 228T1039 96T869 5T670 -29Q589
-29 522 -8T406 50T322 138T265 249T234 374T223 508Q223 619 246 725Z" />
<glyph unicode="P" glyph-name="P" horiz-adv-x="1099" d="M444 774H650Q1034 774 1093 1047Q1099 1076 1099 1109Q1099 1142 1091 1169T1059 1224T1000 1271T903 1303T765 1315H559L444 774ZM430 1456H588H794Q1024 1456 1144 1368T1265 1132Q1263 1088 1255
1047Q1216 866 1053 749T619 631H413L279 0H121L430 1456Z" />
<glyph unicode="Q" glyph-name="Q" horiz-adv-x="1370" d="M1258 725Q1283 845 1283 945Q1283 1013 1273 1071T1238 1183T1178 1273T1087 1332T962 1354Q829 1354 713 1263T523 1031T412 725Q390 624 390 527Q390 523 390 520T390 512Q390 448 399 393T432 285T492
195T586 136T716 113Q770 113 836 133T943 188L785 330L898 446L1064 297Q1197 441 1258 725ZM246 725Q268 826 309 929T418 1135T568 1317T762 1445T994 1495Q1092 1495 1170 1464T1299 1381T1383 1258T1431 1109T1446 947Q1446 944 1446 939T1446 931Q1446 827
1424 725Q1391 569 1319 429T1166 207L1306 86L1191 -31L1046 96Q958 36 875 4T682 -29Q582 -29 503 1T372 81T286 202T238 348T223 509Q223 619 246 725Z" />
<glyph unicode="R" glyph-name="R" horiz-adv-x="1101" d="M444 774H650Q1034 774 1093 1047Q1100 1079 1100 1107Q1100 1205 1019 1260T765 1315H559L444 774ZM923 0L628 631H413L279 0H121L430 1456H588H794Q934 1456 1039 1419T1205 1308T1266 1130Q1266 1090
1257 1047Q1225 898 1103 788T808 648L1104 0H923Z" />
<glyph unicode="S" glyph-name="S" horiz-adv-x="1079" d="M115 327L291 358Q293 303 325 248T422 153T563 113Q704 113 819 185T960 371Q965 395 965 419Q965 453 953 485T923 543T875 593T820 635T758 671T697 700T639 725T592 745Q563 758 543 768T494 796T447
829T407 868T374 917T353 975T345 1045Q345 1088 355 1136Q390 1300 533 1397T857 1495Q1029 1495 1131 1410T1247 1194L1090 1169Q1083 1240 1011 1297T827 1354Q712 1354 625 1292T517 1136Q511 1108 511 1084Q511 1056 519 1032T539 989T571 953T611 923T660
896T711 872T767 848T823 824Q869 802 904 783T983 730T1055 660T1102 572T1122 460Q1122 416 1112 368Q1085 238 997 147T791 13T533 -29Q435 -29 359 -2T233 76T155 188T115 327Z" />
<glyph unicode="T" glyph-name="T" horiz-adv-x="1243" d="M397 1456H1489L1460 1315H1003L723 0H565L845 1315H368L397 1456Z" />
<glyph unicode="U" glyph-name="U" horiz-adv-x="1265" d="M1313 1456H1474L1302 645Q1234 328 1059 150T637 -29Q441 -29 336 86T231 414Q231 519 258 645L430 1456H592L420 645Q397 537 397 455Q397 450 397 445Q397 279 471 196T667 113Q742 113 812 144T947
239T1061 406T1141 645L1313 1456Z" />
<glyph unicode="V" glyph-name="V" horiz-adv-x="1245" d="M1331 1456H1495L745 0H526L389 1456H559L671 168L1331 1456Z" />
<glyph unicode="W" glyph-name="W" horiz-adv-x="1576" d="M393 1456H553L467 182L1004 1419H1199L1210 182L1665 1456H1825L1286 0H1067L1062 1229L535 0H311L393 1456Z" />
<glyph unicode="X" glyph-name="X" horiz-adv-x="1214" d="M383 1456H565L799 850L1282 1456H1464L857 729L1161 0H971L743 586L258 0H80L690 729L383 1456Z" />
<glyph unicode="Y" glyph-name="Y" horiz-adv-x="1179" d="M385 1456H553L782 856L1265 1456H1433L837 748L678 0H520L679 748L385 1456Z" />
<glyph unicode="Z" glyph-name="Z" horiz-adv-x="1325" d="M438 1456H1542L399 141H1275L1245 0H100L1253 1315H409L438 1456Z" />
<glyph unicode="[" glyph-name="bracketleft" horiz-adv-x="626" d="M506 -96H111L456 1530H851L821 1389H576L290 43H535L506 -96Z" />
<glyph unicode="\" glyph-name="backslash" horiz-adv-x="811" d="M690 0L299 1544H471L860 0H690Z" />
<glyph unicode="]" glyph-name="bracketright" horiz-adv-x="638" d="M109 -96L139 45H385L670 1389H424L454 1530H849L504 -96H109Z" />
<glyph unicode="^" glyph-name="asciicircum" horiz-adv-x="927" d="M1065 1149H877L767 1362L564 1151H378L727 1493H858L1065 1149Z" />
<glyph unicode="_" glyph-name="underscore" horiz-adv-x="1241" d="M39 -231L69 -90H1159L1129 -231H39Z" />
<glyph unicode="`" glyph-name="grave" horiz-adv-x="516" d="M602 1160L421 1447Q413 1462 413 1476Q413 1480 413 1482T413 1484Q413 1488 414 1495Q422 1532 458 1553Q482 1569 508 1569Q542 1569 560 1537L703 1226Q703 1225 704 1219T706 1209Q706 1203 705
1200Q699 1171 672 1155Q654 1143 635 1143Q613 1143 602 1160Z" />
<glyph unicode="a" glyph-name="a" horiz-adv-x="993" d="M613 582Q502 582 418 513T311 344Q305 318 305 293Q305 210 362 158T512 106Q608 106 693 175T800 344Q806 370 806 394Q806 477 749 529T613 582ZM609 717Q713 717 777 663T844 559L864 655Q876 710
876 756Q876 852 827 903T684 954Q615 954 550 933T442 877L387 981Q544 1090 713 1090Q851 1090 935 1009T1019 779Q1019 721 1005 655L979 532L866 0H727L760 156L761 158Q744 109 649 40T450 -29Q312 -29 230 47T147 253Q147 297 157 344Q191 504 322 610T609
717Z" />
<glyph unicode="b" glyph-name="b" horiz-adv-x="1044" d="M590 1454L469 886Q608 1102 814 1102Q892 1102 950 1074T1044 996T1095 880T1112 736Q1112 644 1090 539Q1066 428 1022 330T915 149T763 19T572 -29Q510 -29 464 -12T389 38T346 104T320 184L281 0H129L438
1454H590ZM936 539Q954 625 954 697Q954 826 901 896T757 966Q641 966 537 851T390 537Q373 456 373 385Q373 254 428 180T575 106Q690 106 791 222T936 539Z" />
<glyph unicode="c" glyph-name="c" horiz-adv-x="921" d="M917 809Q910 859 861 908T741 958Q614 958 498 839T343 537Q328 464 328 400Q328 264 391 185T558 106Q601 106 644 123T719 168T774 219T810 264L916 187Q843 97 743 34T529 -29Q420 -29 339 25T216
173T174 387Q174 460 190 537Q213 645 266 745T394 923T567 1047T770 1094Q884 1094 956 1033T1062 875L917 809Z" />
<glyph unicode="d" glyph-name="d" horiz-adv-x="1044" d="M1076 1454H1228L919 0H767L806 184Q743 87 663 29T463 -29Q385 -29 327 -1T234 79T183 196T166 341Q166 435 188 539Q207 628 238 708T315 861T417 987T547 1071T702 1102Q764 1102 810 1085T885 1035T929
967T955 886L1076 1454ZM342 539Q323 453 323 379Q323 250 376 178T519 106Q635 106 739 222T886 537Q904 619 904 690Q904 821 848 893T701 966Q585 966 485 853T342 539Z" />
<glyph unicode="e" glyph-name="e" horiz-adv-x="1013" d="M385 604H907Q914 649 914 692Q914 767 894 825T830 921T722 958Q610 958 518 852T385 604ZM357 469Q351 425 351 382Q351 304 370 244T432 145T541 106Q613 106 691 144T815 243L936 188Q864 89 747
30T512 -29Q408 -29 335 21T227 157T192 357Q192 443 212 537Q246 696 321 821T509 1020T751 1094Q829 1094 890 1065T987 983T1042 865T1061 720Q1061 644 1044 565Q1041 553 1034 517T1025 469H357Z" />
<glyph unicode="f" glyph-name="f" horiz-adv-x="716" d="M615 938L416 0H264L463 938H324L353 1073H491L520 1208Q536 1286 600 1351T735 1449T860 1481Q918 1481 952 1461T1020 1399L889 1294Q879 1312 872 1321T846 1338T800 1346Q760 1346 726 1320T682 1249L645
1073H840L811 938H615Z" />
<glyph unicode="g" glyph-name="g" horiz-adv-x="1021" d="M915 -18Q887 -149 806 -249T623 -399T418 -449Q348 -449 290 -430T193 -380T126 -307T86 -222T73 -135Q73 -122 74 -109H217Q217 -114 217 -120Q217 -203 282 -258T437 -313Q541 -313 636 -240T760 -33L767
0L806 184Q743 87 663 29T464 -29Q386 -29 327 -1T234 79T183 196T166 341Q166 435 188 539Q207 628 238 708T315 861T417 987T547 1071T702 1102Q764 1102 810 1085T885 1035T929 967T955 886L995 1073H1147L919 0L915 -18ZM342 539Q323 453 323 379Q323 250 376
178T519 106Q635 106 739 222T886 537Q904 619 904 690Q904 821 848 893T701 966Q585 966 485 853T342 539Z" />
<glyph unicode="h" glyph-name="h" horiz-adv-x="1064" d="M281 0H129L438 1456H590L471 892Q517 981 612 1041T820 1102Q950 1102 1023 1019T1097 765Q1097 666 1071 541L956 0H805L920 541Q941 639 941 717Q941 833 895 899T751 965Q619 965 527 845T396 540L281 0Z" />
<glyph unicode="i" glyph-name="i" horiz-adv-x="430" d="M414 1333Q422 1371 456 1399T528 1427Q561 1427 582 1407T604 1354Q604 1340 602 1333Q594 1295 560 1267T488 1239Q455 1239 434 1260T412 1314Q412 1317 413 1323T414 1333ZM378 1073H529L301 0H150L378 1073Z" />
<glyph unicode="j" glyph-name="j" horiz-adv-x="468" d="M453 1333Q461 1371 495 1399T567 1427Q599 1427 621 1406T643 1353Q643 1343 641 1333Q633 1295 599 1267T527 1239Q495 1239 473 1260T451 1314Q451 1323 453 1333ZM-193 -346L-64 -244Q-49 -261 -43
-268T-18 -284T24 -293Q126 -293 152 -170L188 0L416 1073H568L340 0L310 -139Q297 -202 263 -253T189 -336T103 -389T23 -419T-36 -428Q-68 -428 -92 -422T-137 -400T-166 -376T-193 -346Z" />
<glyph unicode="k" glyph-name="k" horiz-adv-x="944" d="M610 616L940 0H766L496 512L362 379L281 0H129L438 1454H590L405 582L918 1073H1092L610 616Z" />
<glyph unicode="l" glyph-name="l" horiz-adv-x="430" d="M345 207Q342 190 342 175Q342 102 442 102L414 -29Q301 -29 244 8T185 134Q187 170 193 203L459 1454H610L345 207Z" />
<glyph unicode="m" glyph-name="m" horiz-adv-x="1533" d="M854 0H702L818 547Q849 690 849 776Q849 965 704 965Q487 965 398 550L281 0H129L357 1073H509L470 891Q503 940 526 968T587 1032T673 1085T776 1102Q891 1102 951 1034T1017 860Q1065 964 1154 1033T1353
1102Q1588 1102 1588 835Q1588 755 1566 653L1427 0H1276L1391 543Q1422 690 1422 774Q1422 862 1390 910T1280 958Q1058 958 971 549L854 0Z" />
<glyph unicode="n" glyph-name="n" horiz-adv-x="1064" d="M281 0H129L357 1073H509L471 892Q517 981 612 1041T820 1102Q950 1102 1023 1019T1097 765Q1097 666 1071 541L956 0H805L920 541Q941 639 941 717Q941 833 895 899T751 965Q619 965 527 845T396 540L281 0Z" />
<glyph unicode="o" glyph-name="o" horiz-adv-x="1054" d="M216 537Q268 783 416 938T772 1094Q883 1094 960 1045T1073 912T1109 713Q1109 630 1089 537Q1055 376 981 250T790 48T533 -29Q421 -29 344 21T232 156T196 357Q196 442 216 537ZM370 537Q351 446 351
370Q351 248 402 177T562 106Q704 106 799 227T935 537Q954 626 954 700Q954 820 903 889T743 958Q599 958 505 841T370 537Z" />
<glyph unicode="p" glyph-name="p" horiz-adv-x="1044" d="M509 1073L469 886Q608 1102 814 1102Q892 1102 950 1074T1044 996T1095 880T1112 736Q1112 644 1090 539Q1066 428 1022 330T915 149T763 19T572 -29Q510 -29 464 -12T389 38T346 104T320 184L190 -428H38L357
1073H509ZM936 539Q954 625 954 697Q954 826 901 896T757 966Q641 966 537 851T390 537Q373 456 373 385Q373 254 428 180T575 106Q690 106 791 222T936 539Z" />
<glyph unicode="q" glyph-name="q" horiz-adv-x="1048" d="M877 -199Q871 -225 871 -243Q871 -280 894 -296T970 -313L942 -449Q714 -449 714 -279Q714 -245 723 -205L767 0L806 184Q752 101 692 53T578 -12T460 -29Q383 -29 325 -1T233 79T183 196T166 341Q166
435 188 539Q207 628 238 708T315 861T417 987T547 1071T702 1102Q764 1102 810 1085T885 1035T929 967T955 886L995 1073H1147L919 0L877 -199ZM342 539Q323 453 323 379Q323 250 376 178T519 106Q635 106 739 222T886 537Q904 619 904 690Q904 821 848 893T701
966Q585 966 485 853T342 539Z" />
<glyph unicode="r" glyph-name="r" horiz-adv-x="686" d="M964 1066L856 935Q813 965 751 965Q619 965 527 845T396 540L281 0H129L357 1073H509L471 892Q517 981 612 1041T820 1102Q902 1102 964 1066Z" />
<glyph unicode="s" glyph-name="s" horiz-adv-x="921" d="M570 477Q521 494 487 508T412 547T346 597T304 661T286 746Q286 776 293 809Q313 901 376 967T522 1065T702 1098Q783 1098 844 1076T938 1016T987 944T1008 871L856 841Q828 963 676 963Q596 963 529
924T447 813Q443 795 443 779Q443 751 455 727T485 689T525 661T567 642T604 627Q616 622 640 613T680 598T720 581T761 561T798 539T834 512T864 480T888 443T902 400T908 350Q908 320 901 287Q882 196 816 123T657 11T467 -29Q316 -29 237 38T142 217L295 245Q311
178 355 142T492 106Q593 106 661 154T747 287Q750 303 750 317Q750 343 739 366T712 404T669 434T621 458T570 477Z" />
<glyph unicode="t" glyph-name="t" horiz-adv-x="696" d="M443 938H301L330 1073H472L525 1323H676L623 1073H820L791 938H594L441 215Q437 195 437 178Q437 98 533 98H603L576 -29H506Q385 -29 332 7T279 125Q279 162 289 211L443 938Z" />
<glyph unicode="u" glyph-name="u" horiz-adv-x="1064" d="M1023 1073H1175L947 0H795L834 181Q787 92 692 32T484 -29Q354 -29 281 54T207 308Q207 407 233 532L348 1073H499L384 532Q363 434 363 356Q363 240 409 174T553 108Q685 108 777 228T908 533L1023 1073Z" />
<glyph unicode="v" glyph-name="v" horiz-adv-x="1024" d="M446 0L310 1073H470L563 195L1037 1073H1195L598 0H446Z" />
<glyph unicode="w" glyph-name="w" horiz-adv-x="1374" d="M881 862L471 0H354L296 1073H449L467 250L849 1065H1000L1036 250L1404 1073H1557L1042 0H920L881 862Z" />
<glyph unicode="x" glyph-name="x" horiz-adv-x="901" d="M870 0H700L553 440L229 0H53L482 539L283 1073H453L595 639L920 1073H1090L666 543L870 0Z" />
<glyph unicode="y" glyph-name="y" horiz-adv-x="1064" d="M943 -18Q922 -117 867 -200T738 -336T584 -419T425 -449Q211 -449 99 -275L223 -190Q298 -313 453 -313Q502 -313 553 -296T651 -246T736 -158T788 -33L834 181Q787 92 692 32T484 -29Q354 -29 281 54T207
308Q207 407 233 532L348 1073H499L384 532Q363 434 363 356Q363 240 409 174T553 108Q685 108 777 228T908 533L1023 1073H1175L943 -18Z" />
<glyph unicode="z" glyph-name="z" horiz-adv-x="962" d="M372 141H907L877 0H90L853 932H329L359 1073H1135L372 141Z" />
<glyph unicode="{" glyph-name="braceleft" horiz-adv-x="747" d="M245 729Q326 753 384 818T473 968T524 1134T564 1292T603 1401Q617 1421 634 1438T666 1467T705 1489T741 1505T784 1515T824 1522T870 1526T913 1528T960 1530L932 1395Q904 1399 889 1399Q846
1399 798 1383T725 1339Q707 1315 691 1237Q684 1202 681 1192Q670 1139 650 1073T602 932T535 800T458 729Q513 706 513 547Q513 543 513 539Q513 406 479 238L469 195Q457 133 457 113Q457 93 459 88Q472 61 513 45T598 29Q614 29 642 33L613 -102Q575 -101 567
-101T525 -99T481 -95T444 -88T406 -77T376 -61T347 -39T327 -10T311 27Q308 38 308 53Q308 92 339 252T370 499Q370 689 245 729Z" />
<glyph unicode="|" glyph-name="bar" horiz-adv-x="368" d="M125 0L434 1454H577L268 0H125Z" />
<glyph unicode="}" glyph-name="braceright" horiz-adv-x="747" d="M833 729Q752 706 694 639T604 484T551 310T510 145T470 33Q439 -10 400 -37T313 -75T225 -90T125 -96Q117 -96 113 -96L141 39Q169 35 183 35Q227 35 275 51T348 94Q364 115 383 201L392 244Q404
300 424 369T475 518T543 657T620 729Q564 753 562 915Q563 1046 593 1192Q596 1202 603 1237Q615 1292 615 1319Q615 1334 613 1339Q600 1367 558 1383T473 1399Q458 1399 430 1395L458 1530Q462 1530 470 1530Q507 1529 526 1528T578 1524T629 1516T672 1502T711
1479T740 1446T761 1401Q763 1385 763 1373Q763 1336 735 1190T707 962Q707 957 707 955T707 953Q707 773 833 729Z" />
<glyph unicode="~" glyph-name="asciitilde" horiz-adv-x="735" d="M225 764Q256 784 285 805T353 843T429 860Q456 860 480 845T524 807T563 762T608 725T663 709Q695 709 732 724T802 761T872 807L841 662Q803 637 772 615T703 578T632 563Q600 563 572 578T522
616T482 661T440 699T396 715Q360 715 324 700T259 664T194 618L225 764Z" />
<glyph unicode="&#xa1;" glyph-name="exclamdown" horiz-adv-x="309" d="M284 1014Q290 1039 311 1056T355 1073Q376 1072 389 1060T403 1028Q403 1021 401 1014L241 65Q232 26 197 -1T123 -29Q88 -29 64 -7T39 48Q39 55 41 63L284 1014ZM536 1360Q526 1315 488
1284T405 1252Q367 1252 343 1276T318 1337Q318 1348 321 1360Q331 1404 369 1435T451 1467Q490 1467 514 1443T538 1382Q538 1367 536 1360Z" />
<glyph unicode="&#xa2;" glyph-name="cent" horiz-adv-x="808" d="M440 279Q336 292 273 364T208 556Q208 603 220 657Q236 733 277 795T373 895T480 957T588 993L634 1208H769L723 993Q816 969 898 881L788 786Q771 807 757 821T704 850T618 866Q533 866 457
805T362 653Q354 620 354 582Q354 499 400 453T526 406Q653 406 758 512L829 422Q749 326 574 274L533 78H398L440 279Z" />
<glyph unicode="&#xa3;" glyph-name="sterling" horiz-adv-x="1120" d="M438 596H211L239 731H477Q554 1094 659 1280T908 1466Q1129 1466 1172 1169L1027 1163Q1025 1233 989 1283T879 1333Q848 1333 805 1266T727 1107T674 934L647 809L630 731H989L961 596H596Q542
409 391 135H895Q917 136 930 139T971 158T1027 207L1083 92Q1068 75 1050 61T1014 39T976 24T937 14T896 6T854 0H145Q164 41 230 154T354 384T438 596Z" />
<glyph unicode="&#xa4;" glyph-name="currency" horiz-adv-x="856" d="M422 764Q418 738 418 726Q418 664 459 624T565 583Q640 583 703 636T783 764Q787 781 787 804Q787 865 747 905T642 945Q567 945 503 892T422 764ZM723 504Q632 449 533 449Q436 449 367
504L340 375H143L184 571H311Q280 628 280 698Q280 731 287 762Q310 866 385 946H264L306 1143H503L477 1020Q568 1075 666 1075T833 1020L859 1143H1056L1014 946H893Q919 896 921 828Q921 794 914 762Q892 658 807 571H934L893 375H696L723 504Z" />
<glyph unicode="&#xa5;" glyph-name="yen" horiz-adv-x="1110" d="M616 682H305L334 817H592L371 1397H526L730 831L1194 1397H1350L854 817H1102L1073 682H768L722 467H1027L999 332H694L623 0H471L542 332H231L259 467H570L616 682Z" />
<glyph unicode="&#xa6;" glyph-name="brokenbar" horiz-adv-x="305" d="M370 645L233 0H90L227 645H370ZM257 788L395 1434H538L400 788H257Z" />
<glyph unicode="&#xa7;" glyph-name="section" horiz-adv-x="686" d="M390 958Q420 967 458 967Q525 967 585 942T691 872T763 763T790 624Q790 578 781 530Q745 360 624 232T372 104Q279 104 215 147T113 291L265 301Q278 275 315 258T385 240H389Q460 240 521
296T616 440V442Q617 444 616 444T612 445Q607 445 583 439T549 432Q409 432 313 517T215 759Q217 815 228 872Q252 982 311 1078T456 1234T633 1294Q730 1294 781 1258T883 1130L726 1114Q713 1133 681 1146T621 1159H617Q477 1159 390 958ZM630 582Q634 601 634
625Q634 708 578 769T427 831Q394 831 369 817Q366 805 364 781Q364 700 427 634T572 567H590Q627 567 630 582Z" />
<glyph unicode="&#xa8;" glyph-name="dieresis" horiz-adv-x="794" d="M725 838Q733 876 767 904T839 932Q872 932 893 911T915 853Q915 852 913 838Q905 799 871 771T799 743Q766 743 745 764T723 819Q723 824 725 838ZM254 836Q262 874 296 902T368 930Q401
930 422 909T444 855Q444 848 442 836Q434 797 400 769T328 741Q294 741 273 763T252 822Q252 828 254 836Z" />
<glyph unicode="&#xa9;" glyph-name="copyright" horiz-adv-x="942" d="M759 610Q678 543 594 543Q520 543 474 589T427 706Q427 730 431 750Q450 836 523 896T682 956Q774 956 820 897L724 815Q697 844 658 844Q620 844 586 816T544 750Q544 747 544 741T542
731Q542 699 563 677T618 655Q665 655 700 682L759 610ZM317 750Q310 716 310 682Q310 571 382 499T570 426Q703 426 817 521T960 750Q966 779 968 818Q968 928 895 1000T707 1073Q574 1073 460 979T317 750ZM200 750Q226 869 306 969T500 1129T732 1188Q889 1188
988 1090T1087 841Q1085 786 1077 750Q1039 569 883 440T545 311Q389 311 290 409T191 658Q191 663 191 667Q191 701 200 750Z" />
<glyph unicode="&#xab;" glyph-name="guillemotleft" horiz-adv-x="872" d="M891 1118H1026L772 827L902 537H767L637 827L891 1118ZM490 1118H625L371 827L501 537H366L235 827L490 1118Z" />
<glyph unicode="&#xac;" glyph-name="logicalnot" horiz-adv-x="1026" d="M1036 545H900L943 750H313L344 893H1110L1036 545Z" />
<glyph unicode="&#xad;" glyph-name="softhyphen" horiz-adv-x="950" d="M296 877H973L943 735H266L296 877Z" />
<glyph unicode="&#xae;" glyph-name="registered" horiz-adv-x="1189" d="M370 750Q361 705 359 656Q359 582 387 524T462 430T564 376T678 358Q770 358 868 402T1047 539T1154 750Q1164 793 1164 836Q1164 911 1134 972T1055 1069T953 1124T845 1143Q776 1143
703 1119T563 1047T443 923T370 750ZM253 750Q280 876 349 977T507 1138T689 1229T870 1260Q1051 1260 1167 1149T1284 861Q1282 804 1271 750Q1240 604 1141 486T912 305T653 242Q574 242 501 267T370 339T276 463T240 632Q240 689 253 750ZM678 801H729Q802 801
845 813T897 866Q898 870 898 877Q898 911 854 921T735 932H706L678 801ZM641 1010H723Q836 1010 907 981T979 890Q979 887 979 884Q979 877 977 866Q971 837 957 815T930 781T891 759T852 745T809 735L920 496H820L727 723L661 721L613 496H531L641 1010Z" />
<glyph unicode="&#xaf;" glyph-name="overscore" horiz-adv-x="706" d="M303 1130H908L879 995H274L303 1130Z" />
<glyph unicode="0;" glyph-name="degree" horiz-adv-x="598" d="M417 1178Q415 1166 413 1144Q413 1093 445 1061T530 1028Q591 1028 641 1071T705 1178Q709 1193 709 1213Q709 1263 677 1295T593 1328Q533 1328 482 1285T417 1178ZM299 1174Q321 1281 413
1356T615 1432Q709 1432 769 1374T829 1227Q829 1210 823 1174Q800 1066 707 991T505 915Q411 915 352 973T293 1120Q293 1146 299 1174Z" />
<glyph unicode="1;" glyph-name="plusminus" horiz-adv-x="983" d="M362 998H669L735 1309H876L810 998H1118L1088 856H780L714 545H573L639 856H332L362 998ZM278 416H955L925 274H248L278 416Z" />
<glyph unicode="4;" glyph-name="acute" horiz-adv-x="550" d="M367 1232L640 1546Q672 1579 707 1579Q732 1579 749 1562Q767 1547 769 1518Q769 1513 767 1505Q762 1481 741 1458L441 1168Q424 1151 401 1151Q381 1151 367 1162Q352 1177 352 1196Q352 1197
352 1200T353 1206Q357 1220 367 1232Z" />
<glyph unicode="5;" glyph-name="mu" horiz-adv-x="1003" d="M313 74L213 -395H70L339 872H484L387 414Q371 340 371 282Q371 111 520 111Q577 111 629 140T718 216T780 314T815 414L912 872H1055L870 0H727L748 98Q690 41 624 7T500 -27Q456 -27 424 -18T374
6T340 39T313 74Z" />
<glyph unicode="6;" glyph-name="paragraph" horiz-adv-x="1150" d="M913 1260L804 748Q821 748 910 744T1019 739L1132 1272Q1115 1272 1024 1266T913 1260ZM763 1227Q711 1211 672 1195T589 1151T515 1085T475 995Q470 965 470 946Q470 913 482 887T512
844T558 813T610 791T667 774L763 1227ZM674 135H891L992 612Q974 612 885 617T777 623L674 135ZM502 0L639 643Q565 660 513 679T415 729T346 805T323 912Q323 950 332 995Q353 1093 427 1171T610 1298T847 1371T1114 1397H1311L1014 0H502Z" />
<glyph unicode="7;" glyph-name="middot" horiz-adv-x="438" d="M297 729Q307 774 345 805T428 837Q466 837 490 813T515 752Q515 741 512 729Q502 685 464 654T382 622Q343 622 319 646T295 707Q295 722 297 729Z" />
<glyph unicode="8;" glyph-name="cedilla" horiz-adv-x="473" d="M77 -190Q186 -120 193 -86Q194 -81 194 -71Q194 -54 184 -32T160 18L301 74Q352 12 352 -60Q352 -81 348 -98Q341 -130 322 -158T269 -210T212 -250T146 -287T93 -315L77 -190Z" />
<glyph unicode="b;" glyph-name="guillemotright" horiz-adv-x="933" d="M471 1118L602 827L347 537H212L467 827L336 1118H471ZM873 1118L1003 827L749 537H614L868 827L738 1118H873Z" />
<glyph unicode="f;" glyph-name="questiondown" horiz-adv-x="954" d="M569 902L598 1043H755L725 898Q715 853 696 814T657 747T603 689T545 642T481 596T419 551Q382 523 370 514T331 479T291 434T264 381T241 309Q234 274 234 242Q234 149 296 98T464 47Q586
47 690 136T814 318L955 293Q901 129 756 18T441 -94Q366 -94 301 -75T184 -19T103 77T73 212Q73 256 83 305Q119 476 284 612Q319 641 374 676T462 734T525 799T569 902ZM832 1309Q822 1264 784 1233T701 1201Q662 1201 638 1225T614 1286Q614 1297 617 1309Q627
1353 665 1384T747 1416Q786 1416 810 1392T834 1331Q834 1316 832 1309Z" />
<glyph unicode="0;" glyph-name="Agrave" horiz-adv-x="1292" d="M971 1508L790 1795Q782 1810 782 1824Q782 1828 782 1830T782 1832Q782 1836 783 1843Q791 1880 827 1901Q851 1917 877 1917Q911 1917 929 1885L1072 1574Q1072 1573 1073 1567T1075 1557Q1075
1551 1074 1548Q1068 1519 1041 1503Q1023 1491 1004 1491Q982 1491 971 1508ZM927 1214L597 621H1012L927 1214ZM1020 485H523L258 0H82L915 1456H1042L1257 0H1077L1020 485Z" />
<glyph unicode="1;" glyph-name="Aacute" horiz-adv-x="1292" d="M921 1576L1194 1890Q1226 1923 1261 1923Q1286 1923 1303 1906Q1321 1891 1323 1862Q1323 1857 1321 1849Q1316 1825 1295 1802L995 1512Q978 1495 955 1495Q935 1495 921 1506Q906 1521 906
1540Q906 1541 906 1544T907 1550Q911 1564 921 1576ZM927 1214L597 621H1012L927 1214ZM1020 485H523L258 0H82L915 1456H1042L1257 0H1077L1020 485Z" />
<glyph unicode="2;" glyph-name="Acircumflex" horiz-adv-x="1292" d="M1341 1561H1153L1043 1774L840 1563H654L1003 1905H1134L1341 1561ZM927 1214L597 621H1012L927 1214ZM1020 485H523L258 0H82L915 1456H1042L1257 0H1077L1020 485Z" />
<glyph unicode="3;" glyph-name="Atilde" horiz-adv-x="1292" d="M722 1770Q753 1790 782 1811T850 1849T926 1866Q953 1866 977 1851T1021 1813T1060 1768T1105 1731T1160 1715Q1192 1715 1229 1730T1299 1767T1369 1813L1338 1668Q1300 1643 1269 1621T1200
1584T1129 1569Q1097 1569 1069 1584T1019 1622T979 1667T937 1705T893 1721Q857 1721 821 1706T756 1670T691 1624L722 1770ZM927 1214L597 621H1012L927 1214ZM1020 485H523L258 0H82L915 1456H1042L1257 0H1077L1020 485Z" />
<glyph unicode="4;" glyph-name="Adieresis" horiz-adv-x="1292" d="M1156 1653Q1164 1691 1198 1719T1270 1747Q1303 1747 1324 1726T1346 1668Q1346 1667 1344 1653Q1336 1614 1302 1586T1230 1558Q1197 1558 1176 1579T1154 1634Q1154 1639 1156 1653ZM685
1651Q693 1689 727 1717T799 1745Q832 1745 853 1724T875 1670Q875 1663 873 1651Q865 1612 831 1584T759 1556Q725 1556 704 1578T683 1637Q683 1643 685 1651ZM927 1214L597 621H1012L927 1214ZM1020 485H523L258 0H82L915 1456H1042L1257 0H1077L1020 485Z"
/>
<glyph unicode="5;" glyph-name="Aring" horiz-adv-x="1292" d="M894 1739Q892 1727 890 1705Q890 1654 922 1622T1007 1589Q1068 1589 1118 1632T1182 1739Q1186 1754 1186 1774Q1186 1824 1154 1856T1070 1889Q1010 1889 959 1846T894 1739ZM776 1735Q798
1842 890 1917T1092 1993Q1186 1993 1246 1935T1306 1788Q1306 1771 1300 1735Q1277 1627 1184 1552T982 1476Q888 1476 829 1534T770 1681Q770 1707 776 1735ZM927 1214L597 621H1012L927 1214ZM1020 485H523L258 0H82L915 1456H1042L1257 0H1077L1020 485Z" />
<glyph unicode="6;" glyph-name="AE" horiz-adv-x="1388" d="M922 645H658L262 0H83L983 1456H1692L1661 1307H1219L1108 788H1550L1519 641H1077L972 147H1414L1383 0H785L922 645ZM1046 1237L1062 1311L748 788H952L1046 1237Z" />
<glyph unicode="7;" glyph-name="Ccedilla" horiz-adv-x="1220" d="M511 -299Q620 -229 627 -195Q628 -190 628 -180Q628 -163 618 -141T594 -91L735 -35Q786 -97 786 -169Q786 -190 782 -207Q775 -239 756 -267T703 -319T646 -359T580 -396T527 -424L511
-299ZM1249 293Q1211 229 1162 175T1047 73T895 -2T714 -29Q618 -29 540 -2T409 72T319 186T266 330T249 498Q249 607 274 725Q299 844 345 954T462 1164T617 1336T811 1452T1040 1495Q1116 1495 1179 1477T1285 1428T1358 1358T1405 1277T1427 1194L1269 1153Q1259
1244 1187 1299T1010 1354H1008Q904 1354 808 1300T640 1156T517 955T440 725Q419 628 419 536Q419 414 454 320T564 168T744 111Q850 111 955 176T1111 334L1249 293Z" />
<glyph unicode="8;" glyph-name="Egrave" horiz-adv-x="1146" d="M907 1510L726 1797Q718 1812 718 1826Q718 1830 718 1832T718 1834Q718 1838 719 1845Q727 1882 763 1903Q787 1919 813 1919Q847 1919 865 1887L1008 1576Q1008 1575 1009 1569T1011 1559Q1011
1553 1010 1550Q1004 1521 977 1505Q959 1493 940 1493Q918 1493 907 1510ZM440 1456H1361L1332 1315H569L463 817H1183L1153 676H433L319 141H1082L1052 0H131L440 1456Z" />
<glyph unicode="9;" glyph-name="Eacute" horiz-adv-x="1146" d="M793 1582L1066 1896Q1098 1929 1133 1929Q1158 1929 1175 1912Q1193 1897 1195 1868Q1195 1863 1193 1855Q1188 1831 1167 1808L867 1518Q850 1501 827 1501Q807 1501 793 1512Q778 1527 778
1546Q778 1547 778 1550T779 1556Q783 1570 793 1582ZM440 1456H1361L1332 1315H569L463 817H1183L1153 676H433L319 141H1082L1052 0H131L440 1456Z" />
<glyph unicode="a;" glyph-name="Ecircumflex" horiz-adv-x="1146" d="M1277 1538H1089L979 1751L776 1540H590L939 1882H1070L1277 1538ZM440 1456H1361L1332 1315H569L463 817H1183L1153 676H433L319 141H1082L1052 0H131L440 1456Z" />
<glyph unicode="b;" glyph-name="Edieresis" horiz-adv-x="1146" d="M1089 1655Q1097 1693 1131 1721T1203 1749Q1236 1749 1257 1728T1279 1670Q1279 1669 1277 1655Q1269 1616 1235 1588T1163 1560Q1130 1560 1109 1581T1087 1636Q1087 1641 1089 1655ZM618
1653Q626 1691 660 1719T732 1747Q765 1747 786 1726T808 1672Q808 1665 806 1653Q798 1614 764 1586T692 1558Q658 1558 637 1580T616 1639Q616 1645 618 1653ZM440 1456H1361L1332 1315H569L463 817H1183L1153 676H433L319 141H1082L1052 0H131L440 1456Z" />
<glyph unicode="c;" glyph-name="Igrave" horiz-adv-x="440" d="M531 1531L350 1818Q342 1833 342 1847Q342 1851 342 1853T342 1855Q342 1859 343 1866Q351 1903 387 1924Q411 1940 437 1940Q471 1940 489 1908L632 1597Q632 1596 633 1590T635 1580Q635
1574 634 1571Q628 1542 601 1526Q583 1514 564 1514Q542 1514 531 1531ZM164 0L473 1456H630L321 0H164Z" />
<glyph unicode="d;" glyph-name="Iacute" horiz-adv-x="440" d="M537 1617L810 1931Q842 1964 877 1964Q902 1964 919 1947Q937 1932 939 1903Q939 1898 937 1890Q932 1866 911 1843L611 1553Q594 1536 571 1536Q551 1536 537 1547Q522 1562 522 1581Q522
1582 522 1585T523 1591Q527 1605 537 1617ZM164 0L473 1456H630L321 0H164Z" />
<glyph unicode="e;" glyph-name="Icircumflex" horiz-adv-x="440" d="M914 1550H726L616 1763L413 1552H227L576 1894H707L914 1550ZM164 0L473 1456H630L321 0H164Z" />
<glyph unicode="f;" glyph-name="Idieresis" horiz-adv-x="440" d="M729 1639Q737 1677 771 1705T843 1733Q876 1733 897 1712T919 1654Q919 1653 917 1639Q909 1600 875 1572T803 1544Q770 1544 749 1565T727 1620Q727 1625 729 1639ZM258 1637Q266 1675
300 1703T372 1731Q405 1731 426 1710T448 1656Q448 1649 446 1637Q438 1598 404 1570T332 1542Q298 1542 277 1564T256 1623Q256 1629 258 1637ZM164 0L473 1456H630L321 0H164Z" />
<glyph unicode="&#xd0;" glyph-name="Eth" horiz-adv-x="3969" d="M467 662H285L315 803H497L635 1456H1016Q1164 1456 1272 1388T1434 1202T1488 931Q1488 833 1465 726Q1433 575 1361 441T1189 210T965 57T707 0H481H326L467 662ZM624 662L513 143H737Q932 143
1093 305T1308 726Q1328 816 1328 903Q1328 1090 1236 1201T986 1312H762L654 803H954L924 662H624Z" />
<glyph unicode="&#xd1;" glyph-name="Ntilde" horiz-adv-x="1292" d="M733 1749Q764 1769 793 1790T861 1828T937 1845Q964 1845 988 1830T1032 1792T1071 1747T1116 1710T1171 1694Q1203 1694 1240 1709T1310 1746T1380 1792L1349 1647Q1311 1622 1280 1600T1211
1563T1140 1548Q1108 1548 1080 1563T1030 1601T990 1646T948 1684T904 1700Q868 1700 832 1685T767 1649T702 1603L733 1749ZM131 0L440 1456H593L1087 295L1333 1456H1490L1181 0H1036L542 1190L289 0H131Z" />
<glyph unicode="&#xd2;" glyph-name="Ograve" horiz-adv-x="1329" d="M1026 1576L845 1863Q837 1878 837 1892Q837 1896 837 1898T837 1900Q837 1904 838 1911Q846 1948 882 1969Q906 1985 932 1985Q966 1985 984 1953L1127 1642Q1127 1641 1128 1635T1130 1625Q1130
1619 1129 1616Q1123 1587 1096 1571Q1078 1559 1059 1559Q1037 1559 1026 1576ZM1260 725Q1285 845 1285 952Q1285 1035 1269 1104T1219 1231T1122 1321T974 1354Q881 1354 799 1314T657 1211T549 1063T470 895T422 725Q398 613 398 507Q398 425 414 358T465 234T562
145T710 113Q803 113 885 151T1026 251T1134 394T1212 558T1260 725ZM256 725Q278 826 319 929T426 1135T575 1317T769 1445T1004 1495Q1101 1495 1178 1464T1306 1382T1389 1259T1436 1112T1450 950Q1450 839 1426 725Q1408 642 1376 558T1298 388T1188 228T1049
96T879 5T680 -29Q599 -29 532 -8T416 50T332 138T275 249T244 374T233 508Q233 619 256 725Z" />
<glyph unicode="&#xd3;" glyph-name="Oacute" horiz-adv-x="1329" d="M975 1635L1248 1949Q1280 1982 1315 1982Q1340 1982 1357 1965Q1375 1950 1377 1921Q1377 1916 1375 1908Q1370 1884 1349 1861L1049 1571Q1032 1554 1009 1554Q989 1554 975 1565Q960 1580
960 1599Q960 1600 960 1603T961 1609Q965 1623 975 1635ZM1260 725Q1285 845 1285 952Q1285 1035 1269 1104T1219 1231T1122 1321T974 1354Q881 1354 799 1314T657 1211T549 1063T470 895T422 725Q398 613 398 507Q398 425 414 358T465 234T562 145T710 113Q803
113 885 151T1026 251T1134 394T1212 558T1260 725ZM256 725Q278 826 319 929T426 1135T575 1317T769 1445T1004 1495Q1101 1495 1178 1464T1306 1382T1389 1259T1436 1112T1450 950Q1450 839 1426 725Q1408 642 1376 558T1298 388T1188 228T1049 96T879 5T680
-29Q599 -29 532 -8T416 50T332 138T275 249T244 374T233 508Q233 619 256 725Z" />
<glyph unicode="&#xd4;" glyph-name="Ocircumflex" horiz-adv-x="1329" d="M1362 1563H1174L1064 1776L861 1565H675L1024 1907H1155L1362 1563ZM1260 725Q1285 845 1285 952Q1285 1035 1269 1104T1219 1231T1122 1321T974 1354Q881 1354 799 1314T657 1211T549
1063T470 895T422 725Q398 613 398 507Q398 425 414 358T465 234T562 145T710 113Q803 113 885 151T1026 251T1134 394T1212 558T1260 725ZM256 725Q278 826 319 929T426 1135T575 1317T769 1445T1004 1495Q1101 1495 1178 1464T1306 1382T1389 1259T1436 1112T1450
950Q1450 839 1426 725Q1408 642 1376 558T1298 388T1188 228T1049 96T879 5T680 -29Q599 -29 532 -8T416 50T332 138T275 249T244 374T233 508Q233 619 256 725Z" />
<glyph unicode="&#xd5;" glyph-name="Otilde" horiz-adv-x="1329" d="M746 1770Q777 1790 806 1811T874 1849T950 1866Q977 1866 1001 1851T1045 1813T1084 1768T1129 1731T1184 1715Q1216 1715 1253 1730T1323 1767T1393 1813L1362 1668Q1324 1643 1293 1621T1224
1584T1153 1569Q1121 1569 1093 1584T1043 1622T1003 1667T961 1705T917 1721Q881 1721 845 1706T780 1670T715 1624L746 1770ZM1260 725Q1285 845 1285 952Q1285 1035 1269 1104T1219 1231T1122 1321T974 1354Q881 1354 799 1314T657 1211T549 1063T470 895T422
725Q398 613 398 507Q398 425 414 358T465 234T562 145T710 113Q803 113 885 151T1026 251T1134 394T1212 558T1260 725ZM256 725Q278 826 319 929T426 1135T575 1317T769 1445T1004 1495Q1101 1495 1178 1464T1306 1382T1389 1259T1436 1112T1450 950Q1450 839
1426 725Q1408 642 1376 558T1298 388T1188 228T1049 96T879 5T680 -29Q599 -29 532 -8T416 50T332 138T275 249T244 374T233 508Q233 619 256 725Z" />
<glyph unicode="&#xd6;" glyph-name="Odieresis" horiz-adv-x="1329" d="M1166 1672Q1174 1710 1208 1738T1280 1766Q1313 1766 1334 1745T1356 1687Q1356 1686 1354 1672Q1346 1633 1312 1605T1240 1577Q1207 1577 1186 1598T1164 1653Q1164 1658 1166 1672ZM695
1670Q703 1708 737 1736T809 1764Q842 1764 863 1743T885 1689Q885 1682 883 1670Q875 1631 841 1603T769 1575Q735 1575 714 1597T693 1656Q693 1662 695 1670ZM1260 725Q1285 845 1285 952Q1285 1035 1269 1104T1219 1231T1122 1321T974 1354Q881 1354 799 1314T657
1211T549 1063T470 895T422 725Q398 613 398 507Q398 425 414 358T465 234T562 145T710 113Q803 113 885 151T1026 251T1134 394T1212 558T1260 725ZM256 725Q278 826 319 929T426 1135T575 1317T769 1445T1004 1495Q1101 1495 1178 1464T1306 1382T1389 1259T1436
1112T1450 950Q1450 839 1426 725Q1408 642 1376 558T1298 388T1188 228T1049 96T879 5T680 -29Q599 -29 532 -8T416 50T332 138T275 249T244 374T233 508Q233 619 256 725Z" />
<glyph unicode="&#xd7;" glyph-name="multiply" horiz-adv-x="833" d="M195 538L410 757L235 1022L334 1122L509 857L725 1077L805 956L589 736L765 471L666 371L490 636L275 417L195 538Z" />
<glyph unicode="&#xd8;" glyph-name="Oslash" horiz-adv-x="2416" d="M409 41L363 -29H211L319 134Q226 274 226 500Q226 612 249 718Q270 818 309 919T413 1121T557 1301T743 1428T969 1477Q1091 1477 1177 1427L1223 1496H1375L1274 1345Q1390 1203 1390 950Q1390
946 1390 943Q1390 937 1390 931Q1390 827 1367 718Q1346 619 1307 519T1203 319T1060 143T874 19T649 -29Q504 -29 409 41ZM494 170Q567 111 679 111Q768 111 847 149T985 248T1090 390T1168 552T1216 718Q1240 831 1241 945Q1239 1108 1183 1207L494 170ZM415
279L1092 1300Q1027 1338 939 1338Q850 1338 770 1299T632 1197T526 1051T449 885T401 718Q376 599 376 507Q376 503 376 498Q376 367 415 279Z" />
<glyph unicode="&#xd9;" glyph-name="Ugrave" horiz-adv-x="1298" d="M998 1531L817 1818Q809 1833 809 1847Q809 1851 809 1853T809 1855Q809 1859 810 1866Q818 1903 854 1924Q878 1940 904 1940Q938 1940 956 1908L1099 1597Q1099 1596 1100 1590T1102 1580Q1102
1574 1101 1571Q1095 1542 1068 1526Q1050 1514 1031 1514Q1009 1514 998 1531ZM1323 1456H1484L1312 645Q1244 328 1069 150T647 -29Q451 -29 346 86T241 414Q241 519 268 645L440 1456H602L430 645Q407 537 407 455Q407 450 407 445Q407 279 481 196T677 113Q752
113 822 144T957 239T1071 406T1151 645L1323 1456Z" />
<glyph unicode="&#xda;" glyph-name="Uacute" horiz-adv-x="1298" d="M890 1603L1163 1917Q1195 1950 1230 1950Q1255 1950 1272 1933Q1290 1918 1292 1889Q1292 1884 1290 1876Q1285 1852 1264 1829L964 1539Q947 1522 924 1522Q904 1522 890 1533Q875 1548 875
1567Q875 1568 875 1571T876 1577Q880 1591 890 1603ZM1323 1456H1484L1312 645Q1244 328 1069 150T647 -29Q451 -29 346 86T241 414Q241 519 268 645L440 1456H602L430 645Q407 537 407 455Q407 450 407 445Q407 279 481 196T677 113Q752 113 822 144T957 239T1071
406T1151 645L1323 1456Z" />
<glyph unicode="&#xdb;" glyph-name="Ucircumflex" horiz-adv-x="1298" d="M1318 1567H1130L1020 1780L817 1569H631L980 1911H1111L1318 1567ZM1323 1456H1484L1312 645Q1244 328 1069 150T647 -29Q451 -29 346 86T241 414Q241 519 268 645L440 1456H602L430
645Q407 537 407 455Q407 450 407 445Q407 279 481 196T677 113Q752 113 822 144T957 239T1071 406T1151 645L1323 1456Z" />
<glyph unicode="&#xdc;" glyph-name="Udieresis" horiz-adv-x="1298" d="M1144 1672Q1152 1710 1186 1738T1258 1766Q1291 1766 1312 1745T1334 1687Q1334 1686 1332 1672Q1324 1633 1290 1605T1218 1577Q1185 1577 1164 1598T1142 1653Q1142 1658 1144 1672ZM673
1670Q681 1708 715 1736T787 1764Q820 1764 841 1743T863 1689Q863 1682 861 1670Q853 1631 819 1603T747 1575Q713 1575 692 1597T671 1656Q671 1662 673 1670ZM1323 1456H1484L1312 645Q1244 328 1069 150T647 -29Q451 -29 346 86T241 414Q241 519 268 645L440
1456H602L430 645Q407 537 407 455Q407 450 407 445Q407 279 481 196T677 113Q752 113 822 144T957 239T1071 406T1151 645L1323 1456Z" />
<glyph unicode="&#xdd;" glyph-name="Yacute" horiz-adv-x="1179" d="M914 1582L1187 1896Q1219 1929 1254 1929Q1279 1929 1296 1912Q1314 1897 1316 1868Q1316 1863 1314 1855Q1309 1831 1288 1808L988 1518Q971 1501 948 1501Q928 1501 914 1512Q899 1527 899
1546Q899 1547 899 1550T900 1556Q904 1570 914 1582ZM395 1456H563L792 856L1275 1456H1443L847 748L688 0H530L689 748L395 1456Z" />
<glyph unicode="&#xde;" glyph-name="Thorn" horiz-adv-x="1329" d="M404 477Q491 477 569 484T727 510T867 558T972 637T1029 750Q1034 769 1034 794Q1034 1010 518 1010L404 477ZM454 1456H612L547 1150Q1195 1150 1195 828Q1195 792 1186 750Q1168 667 1127
601T1025 490T893 415T733 368T559 344T375 337L303 0H145L454 1456Z" />
<glyph unicode="&#xdf;" glyph-name="germandbls" horiz-adv-x="1212" d="M419 1152Q504 1298 646 1388T969 1479Q1134 1479 1238 1398T1342 1174Q1340 1128 1331 1087Q1330 1085 1329 1081T1328 1074Q1313 1005 1269 946T1164 849T1048 785T939 747Q980 736 1022
714T1107 657T1177 566T1205 446Q1205 416 1197 378Q1110 -30 605 -30Q525 -30 430 23L547 146Q557 142 575 132T607 116T634 110Q714 110 776 121T897 161T994 243T1050 378Q1055 397 1055 423Q1055 497 1003 557T868 648T696 679H660Q635 679 617 673L649 825Q664
821 685 821H727Q816 821 912 850T1085 940T1179 1074Q1187 1111 1187 1141Q1187 1146 1187 1150Q1187 1342 940 1342Q797 1342 707 1281T551 1105Q497 1007 442 812T326 353T240 0H92Q131 130 192 391T309 852T419 1152Z" />
<glyph unicode="&#xe0;" glyph-name="agrave" horiz-adv-x="1036" d="M776 1162L595 1449Q587 1464 587 1478Q587 1482 587 1484T587 1486Q587 1490 588 1497Q596 1534 632 1555Q656 1571 682 1571Q716 1571 734 1539L877 1228Q877 1227 878 1221T880 1211Q880
1205 879 1202Q873 1173 846 1157Q828 1145 809 1145Q787 1145 776 1162ZM623 582Q512 582 428 513T321 344Q315 318 315 293Q315 210 372 158T522 106Q618 106 703 175T810 344Q816 370 816 394Q816 477 759 529T623 582ZM619 717Q723 717 787 663T854 559L874
655Q886 710 886 756Q886 852 837 903T694 954Q625 954 560 933T452 877L397 981Q554 1090 723 1090Q861 1090 945 1009T1029 779Q1029 721 1015 655L989 532L876 0H737L770 156L771 158Q754 109 659 40T460 -29Q322 -29 240 47T157 253Q157 297 167 344Q201 504
332 610T619 717Z" />
<glyph unicode="&#xe1;" glyph-name="aacute" horiz-adv-x="1036" d="M679 1218L952 1532Q984 1565 1019 1565Q1044 1565 1061 1548Q1079 1533 1081 1504Q1081 1499 1079 1491Q1074 1467 1053 1444L753 1154Q736 1137 713 1137Q693 1137 679 1148Q664 1163 664
1182Q664 1183 664 1186T665 1192Q669 1206 679 1218ZM623 582Q512 582 428 513T321 344Q315 318 315 293Q315 210 372 158T522 106Q618 106 703 175T810 344Q816 370 816 394Q816 477 759 529T623 582ZM619 717Q723 717 787 663T854 559L874 655Q886 710 886 756Q886
852 837 903T694 954Q625 954 560 933T452 877L397 981Q554 1090 723 1090Q861 1090 945 1009T1029 779Q1029 721 1015 655L989 532L876 0H737L770 156L771 158Q754 109 659 40T460 -29Q322 -29 240 47T157 253Q157 297 167 344Q201 504 332 610T619 717Z" />
<glyph unicode="&#xe2;" glyph-name="acircumflex" horiz-adv-x="1036" d="M1077 1395H889L779 1608L576 1397H390L739 1739H870L1077 1395ZM623 582Q512 582 428 513T321 344Q315 318 315 293Q315 210 372 158T522 106Q618 106 703 175T810 344Q816 370 816 394Q816
477 759 529T623 582ZM619 717Q723 717 787 663T854 559L874 655Q886 710 886 756Q886 852 837 903T694 954Q625 954 560 933T452 877L397 981Q554 1090 723 1090Q861 1090 945 1009T1029 779Q1029 721 1015 655L989 532L876 0H737L770 156L771 158Q754 109 659
40T460 -29Q322 -29 240 47T157 253Q157 297 167 344Q201 504 332 610T619 717Z" />
<glyph unicode="&#xe3;" glyph-name="atilde" horiz-adv-x="1036" d="M471 1352Q502 1372 531 1393T599 1431T675 1448Q702 1448 726 1433T770 1395T809 1350T854 1313T909 1297Q941 1297 978 1312T1048 1349T1118 1395L1087 1250Q1049 1225 1018 1203T949 1166T878
1151Q846 1151 818 1166T768 1204T728 1249T686 1287T642 1303Q606 1303 570 1288T505 1252T440 1206L471 1352ZM623 582Q512 582 428 513T321 344Q315 318 315 293Q315 210 372 158T522 106Q618 106 703 175T810 344Q816 370 816 394Q816 477 759 529T623 582ZM619
717Q723 717 787 663T854 559L874 655Q886 710 886 756Q886 852 837 903T694 954Q625 954 560 933T452 877L397 981Q554 1090 723 1090Q861 1090 945 1009T1029 779Q1029 721 1015 655L989 532L876 0H737L770 156L771 158Q754 109 659 40T460 -29Q322 -29 240 47T157
253Q157 297 167 344Q201 504 332 610T619 717Z" />
<glyph unicode="&#xe4;" glyph-name="adieresis" horiz-adv-x="1036" d="M913 1280Q921 1318 955 1346T1027 1374Q1060 1374 1081 1353T1103 1295Q1103 1294 1101 1280Q1093 1241 1059 1213T987 1185Q954 1185 933 1206T911 1261Q911 1266 913 1280ZM442 1278Q450
1316 484 1344T556 1372Q589 1372 610 1351T632 1297Q632 1290 630 1278Q622 1239 588 1211T516 1183Q482 1183 461 1205T440 1264Q440 1270 442 1278ZM623 582Q512 582 428 513T321 344Q315 318 315 293Q315 210 372 158T522 106Q618 106 703 175T810 344Q816
370 816 394Q816 477 759 529T623 582ZM619 717Q723 717 787 663T854 559L874 655Q886 710 886 756Q886 852 837 903T694 954Q625 954 560 933T452 877L397 981Q554 1090 723 1090Q861 1090 945 1009T1029 779Q1029 721 1015 655L989 532L876 0H737L770 156L771
158Q754 109 659 40T460 -29Q322 -29 240 47T157 253Q157 297 167 344Q201 504 332 610T619 717Z" />
<glyph unicode="&#xe5;" glyph-name="aring" horiz-adv-x="1036" d="M654 1368Q652 1356 650 1334Q650 1283 682 1251T767 1218Q828 1218 878 1261T942 1368Q946 1383 946 1403Q946 1453 914 1485T830 1518Q770 1518 719 1475T654 1368ZM536 1364Q558 1471 650
1546T852 1622Q946 1622 1006 1564T1066 1417Q1066 1400 1060 1364Q1037 1256 944 1181T742 1105Q648 1105 589 1163T530 1310Q530 1336 536 1364ZM623 582Q512 582 428 513T321 344Q315 318 315 293Q315 210 372 158T522 106Q618 106 703 175T810 344Q816 370
816 394Q816 477 759 529T623 582ZM619 717Q723 717 787 663T854 559L874 655Q886 710 886 756Q886 852 837 903T694 954Q625 954 560 933T452 877L397 981Q554 1090 723 1090Q861 1090 945 1009T1029 779Q1029 721 1015 655L989 532L876 0H737L770 156L771 158Q754
109 659 40T460 -29Q322 -29 240 47T157 253Q157 297 167 344Q201 504 332 610T619 717Z" />
<glyph unicode="&#xe6;" glyph-name="ae" horiz-adv-x="1486" d="M564 602Q459 602 397 533T311 354Q301 306 301 269Q301 106 459 106Q551 106 620 178T712 354Q718 379 720 425Q720 503 680 552T564 602ZM914 910Q993 1005 1063 1049T1234 1094Q1378 1094 1447
1004T1516 756Q1516 656 1490 537Q1488 527 1482 504T1473 469H883Q867 394 867 325Q867 282 874 246T897 177T946 125T1024 106Q1047 106 1067 110T1102 123T1132 144T1160 171T1187 205T1216 243L1337 188Q1285 115 1240 71T1132 -1T995 -29Q971 -29 951 -27T913
-19T882 -8T855 8T832 26T813 49T797 74T782 102T768 132T754 164Q730 135 711 108T664 56T607 12T531 -18T430 -29Q294 -29 221 47T147 251Q148 300 159 354Q194 517 317 627T593 737Q639 737 671 730T723 706T753 674T776 633Q778 640 781 661T787 692Q798 745
798 789Q798 954 643 954Q578 954 534 935T442 877L386 979Q414 1000 445 1020T506 1055T578 1080T672 1090Q766 1090 823 1046T914 910ZM911 604H1349Q1358 670 1358 732Q1358 837 1324 897T1205 958Q1147 958 1096 925T1010 837T950 724T911 604Z" />
<glyph unicode="&#xe7;" glyph-name="ccedilla" horiz-adv-x="1011" d="M323 -294Q432 -224 439 -190Q440 -185 440 -175Q440 -158 430 -136T406 -86L547 -30Q598 -92 598 -164Q598 -185 594 -202Q587 -234 568 -262T515 -314T458 -354T392 -391T339 -419L323
-294ZM927 809Q920 859 871 908T751 958Q624 958 508 839T353 537Q338 464 338 400Q338 264 401 185T568 106Q611 106 654 123T729 168T784 219T820 264L926 187Q853 97 753 34T539 -29Q430 -29 349 25T226 173T184 387Q184 460 200 537Q223 645 276 745T404 923T577
1047T780 1094Q894 1094 966 1033T1072 875L927 809Z" />
<glyph unicode="&#xe8;" glyph-name="egrave" horiz-adv-x="1046" d="M784 1170L603 1457Q595 1472 595 1486Q595 1490 595 1492T595 1494Q595 1498 596 1505Q604 1542 640 1563Q664 1579 690 1579Q724 1579 742 1547L885 1236Q885 1235 886 1229T888 1219Q888
1213 887 1210Q881 1181 854 1165Q836 1153 817 1153Q795 1153 784 1170ZM395 604H917Q924 649 924 692Q924 767 904 825T840 921T732 958Q620 958 528 852T395 604ZM367 469Q361 425 361 382Q361 304 380 244T442 145T551 106Q623 106 701 144T825 243L946 188Q874
89 757 30T522 -29Q418 -29 345 21T237 157T202 357Q202 443 222 537Q256 696 331 821T519 1020T761 1094Q839 1094 900 1065T997 983T1052 865T1071 720Q1071 644 1054 565Q1051 553 1044 517T1035 469H367Z" />
<glyph unicode="&#xe9;" glyph-name="eacute" horiz-adv-x="1046" d="M682 1242L955 1556Q987 1589 1022 1589Q1047 1589 1064 1572Q1082 1557 1084 1528Q1084 1523 1082 1515Q1077 1491 1056 1468L756 1178Q739 1161 716 1161Q696 1161 682 1172Q667 1187 667
1206Q667 1207 667 1210T668 1216Q672 1230 682 1242ZM395 604H917Q924 649 924 692Q924 767 904 825T840 921T732 958Q620 958 528 852T395 604ZM367 469Q361 425 361 382Q361 304 380 244T442 145T551 106Q623 106 701 144T825 243L946 188Q874 89 757 30T522
-29Q418 -29 345 21T237 157T202 357Q202 443 222 537Q256 696 331 821T519 1020T761 1094Q839 1094 900 1065T997 983T1052 865T1071 720Q1071 644 1054 565Q1051 553 1044 517T1035 469H367Z" />
<glyph unicode="&#xea;" glyph-name="ecircumflex" horiz-adv-x="1046" d="M1119 1153H931L821 1366L618 1155H432L781 1497H912L1119 1153ZM395 604H917Q924 649 924 692Q924 767 904 825T840 921T732 958Q620 958 528 852T395 604ZM367 469Q361 425 361 382Q361
304 380 244T442 145T551 106Q623 106 701 144T825 243L946 188Q874 89 757 30T522 -29Q418 -29 345 21T237 157T202 357Q202 443 222 537Q256 696 331 821T519 1020T761 1094Q839 1094 900 1065T997 983T1052 865T1071 720Q1071 644 1054 565Q1051 553 1044 517T1035
469H367Z" />
<glyph unicode="&#xeb;" glyph-name="edieresis" horiz-adv-x="1046" d="M946 1282Q954 1320 988 1348T1060 1376Q1093 1376 1114 1355T1136 1297Q1136 1296 1134 1282Q1126 1243 1092 1215T1020 1187Q987 1187 966 1208T944 1263Q944 1268 946 1282ZM475 1280Q483
1318 517 1346T589 1374Q622 1374 643 1353T665 1299Q665 1292 663 1280Q655 1241 621 1213T549 1185Q515 1185 494 1207T473 1266Q473 1272 475 1280ZM395 604H917Q924 649 924 692Q924 767 904 825T840 921T732 958Q620 958 528 852T395 604ZM367 469Q361 425
361 382Q361 304 380 244T442 145T551 106Q623 106 701 144T825 243L946 188Q874 89 757 30T522 -29Q418 -29 345 21T237 157T202 357Q202 443 222 537Q256 696 331 821T519 1020T761 1094Q839 1094 900 1065T997 983T1052 865T1071 720Q1071 644 1054 565Q1051
553 1044 517T1035 469H367Z" />
<glyph unicode="&#xec;" glyph-name="igrave" horiz-adv-x="428" d="M378 1073H529L301 0H150L378 1073ZM433 1174L252 1461Q244 1476 244 1490Q244 1494 244 1496T244 1498Q244 1502 245 1509Q253 1546 289 1567Q313 1583 339 1583Q373 1583 391 1551L534 1240Q534
1239 535 1233T537 1223Q537 1217 536 1214Q530 1185 503 1169Q485 1157 466 1157Q444 1157 433 1174Z" />
<glyph unicode="&#xed;" glyph-name="iacute" horiz-adv-x="421" d="M378 1073H529L301 0H150L378 1073ZM441 1224L714 1538Q746 1571 781 1571Q806 1571 823 1554Q841 1539 843 1510Q843 1505 841 1497Q836 1473 815 1450L515 1160Q498 1143 475 1143Q455 1143
441 1154Q426 1169 426 1188Q426 1189 426 1192T427 1198Q431 1212 441 1224Z" />
<glyph unicode="&#xee;" glyph-name="icircumflex" horiz-adv-x="888" d="M619 1073H771L543 0H391L619 1073ZM1040 1118H852L742 1331L539 1120H353L702 1462H833L1040 1118Z" />
<glyph unicode="&#xef;" glyph-name="idieresis" horiz-adv-x="667" d="M500 1073H652L424 0H272L500 1073ZM748 1268Q756 1306 790 1334T862 1362Q895 1362 916 1341T938 1283Q938 1282 936 1268Q928 1229 894 1201T822 1173Q789 1173 768 1194T746 1249Q746
1254 748 1268ZM277 1266Q285 1304 319 1332T391 1360Q424 1360 445 1339T467 1285Q467 1278 465 1266Q457 1227 423 1199T351 1171Q317 1171 296 1193T275 1252Q275 1258 277 1266Z" />
<glyph unicode="&#xf0;" glyph-name="eth" horiz-adv-x="1030" d="M330 455Q321 415 319 359Q320 242 381 174T515 106Q628 106 736 213T873 455Q880 487 880 521Q880 636 802 713T621 791Q533 791 444 682T330 455ZM958 1290Q1009 1213 1050 1097T1091 870Q1091
834 1085 801Q1057 604 1043 540Q1041 528 1035 502Q986 273 830 122T496 -29Q324 -29 243 63T162 307Q162 374 180 459Q221 653 360 789T660 926Q701 926 735 919T790 904T834 877T866 847T896 812T925 778Q932 807 932 851Q931 945 902 1050T827 1204L644 1061L566
1161L729 1290Q663 1315 575 1315Q534 1315 458 1307L475 1454Q502 1456 557 1456Q749 1456 870 1386L1055 1526L1128 1417L958 1290Z" />
<glyph unicode="&#xf1;" glyph-name="ntilde" horiz-adv-x="1044" d="M492 1364Q523 1384 552 1405T620 1443T696 1460Q723 1460 747 1445T791 1407T830 1362T875 1325T930 1309Q962 1309 999 1324T1069 1361T1139 1407L1108 1262Q1070 1237 1039 1215T970 1178T899
1163Q867 1163 839 1178T789 1216T749 1261T707 1299T663 1315Q627 1315 591 1300T526 1264T461 1218L492 1364ZM291 0H139L367 1073H519L481 892Q527 981 622 1041T830 1102Q960 1102 1033 1019T1107 765Q1107 666 1081 541L966 0H815L930 541Q951 639 951 717Q951
833 905 899T761 965Q629 965 537 845T406 540L291 0Z" />
<glyph unicode="&#xf2;" glyph-name="ograve" horiz-adv-x="1060" d="M771 1166L590 1453Q582 1468 582 1482Q582 1486 582 1488T582 1490Q582 1494 583 1501Q591 1538 627 1559Q651 1575 677 1575Q711 1575 729 1543L872 1232Q872 1231 873 1225T875 1215Q875
1209 874 1206Q868 1177 841 1161Q823 1149 804 1149Q782 1149 771 1166ZM226 537Q278 783 426 938T782 1094Q893 1094 970 1045T1083 912T1119 713Q1119 630 1099 537Q1065 376 991 250T800 48T543 -29Q431 -29 354 21T242 156T206 357Q206 442 226 537ZM380 537Q361
446 361 370Q361 248 412 177T572 106Q714 106 809 227T945 537Q964 626 964 700Q964 820 913 889T753 958Q609 958 515 841T380 537Z" />
<glyph unicode="&#xf3;" glyph-name="oacute" horiz-adv-x="1062" d="M728 1238L1001 1552Q1033 1585 1068 1585Q1093 1585 1110 1568Q1128 1553 1130 1524Q1130 1519 1128 1511Q1123 1487 1102 1464L802 1174Q785 1157 762 1157Q742 1157 728 1168Q713 1183 713
1202Q713 1203 713 1206T714 1212Q718 1226 728 1238ZM226 537Q278 783 426 938T782 1094Q893 1094 970 1045T1083 912T1119 713Q1119 630 1099 537Q1065 376 991 250T800 48T543 -29Q431 -29 354 21T242 156T206 357Q206 442 226 537ZM380 537Q361 446 361 370Q361
248 412 177T572 106Q714 106 809 227T945 537Q964 626 964 700Q964 820 913 889T753 958Q609 958 515 841T380 537Z" />
<glyph unicode="&#xf4;" glyph-name="ocircumflex" horiz-adv-x="1062" d="M1110 1378H922L812 1591L609 1380H423L772 1722H903L1110 1378ZM226 537Q278 783 426 938T782 1094Q893 1094 970 1045T1083 912T1119 713Q1119 630 1099 537Q1065 376 991 250T800 48T543
-29Q431 -29 354 21T242 156T206 357Q206 442 226 537ZM380 537Q361 446 361 370Q361 248 412 177T572 106Q714 106 809 227T945 537Q964 626 964 700Q964 820 913 889T753 958Q609 958 515 841T380 537Z" />
<glyph unicode="&#xf5;" glyph-name="otilde" horiz-adv-x="1062" d="M508 1323Q539 1343 568 1364T636 1402T712 1419Q739 1419 763 1404T807 1366T846 1321T891 1284T946 1268Q978 1268 1015 1283T1085 1320T1155 1366L1124 1221Q1086 1196 1055 1174T986 1137T915
1122Q883 1122 855 1137T805 1175T765 1220T723 1258T679 1274Q643 1274 607 1259T542 1223T477 1177L508 1323ZM226 537Q278 783 426 938T782 1094Q893 1094 970 1045T1083 912T1119 713Q1119 630 1099 537Q1065 376 991 250T800 48T543 -29Q431 -29 354 21T242
156T206 357Q206 442 226 537ZM380 537Q361 446 361 370Q361 248 412 177T572 106Q714 106 809 227T945 537Q964 626 964 700Q964 820 913 889T753 958Q609 958 515 841T380 537Z" />
<glyph unicode="&#xf6;" glyph-name="odieresis" horiz-adv-x="1060" d="M929 1276Q937 1314 971 1342T1043 1370Q1076 1370 1097 1349T1119 1291Q1119 1290 1117 1276Q1109 1237 1075 1209T1003 1181Q970 1181 949 1202T927 1257Q927 1262 929 1276ZM458 1274Q466
1312 500 1340T572 1368Q605 1368 626 1347T648 1293Q648 1286 646 1274Q638 1235 604 1207T532 1179Q498 1179 477 1201T456 1260Q456 1266 458 1274ZM226 537Q278 783 426 938T782 1094Q893 1094 970 1045T1083 912T1119 713Q1119 630 1099 537Q1065 376 991
250T800 48T543 -29Q431 -29 354 21T242 156T206 357Q206 442 226 537ZM380 537Q361 446 361 370Q361 248 412 177T572 106Q714 106 809 227T945 537Q964 626 964 700Q964 820 913 889T753 958Q609 958 515 841T380 537Z" />
<glyph unicode="&#xf7;" glyph-name="divide" horiz-adv-x="911" d="M269 705H946L916 563H239L269 705ZM558 1007Q568 1052 606 1083T689 1115Q727 1115 751 1091T776 1030Q776 1019 773 1007Q763 963 725 932T643 900Q604 900 580 924T556 985Q556 1000 558
1007ZM403 278Q413 323 451 354T534 386Q572 386 596 362T621 301Q621 290 618 278Q608 234 570 203T488 171Q449 171 425 195T401 256Q401 271 403 278Z" />
<glyph unicode="&#xf8;" glyph-name="oslash" horiz-adv-x="1024" d="M907 771L406 174Q456 106 541 106Q610 106 671 145T775 248T849 386T896 537Q914 620 914 691Q914 742 907 771ZM856 895Q806 958 722 958Q657 958 597 920T493 821T416 686T368 537Q350 452
350 379Q350 334 357 299L856 895ZM80 -29L234 153Q197 242 197 361Q197 446 216 537Q268 781 412 937T751 1094Q881 1094 961 1019L1026 1098H1181L1030 917Q1067 831 1067 718Q1067 714 1067 710Q1067 626 1048 537Q1014 377 940 250T753 47T512 -29Q384 -29
301 49L237 -29H80Z" />
<glyph unicode="&#xf9;" glyph-name="ugrave" horiz-adv-x="1032" d="M783 1135L602 1422Q594 1437 594 1451Q594 1455 594 1457T594 1459Q594 1463 595 1470Q603 1507 639 1528Q663 1544 689 1544Q723 1544 741 1512L884 1201Q884 1200 885 1194T887 1184Q887
1178 886 1175Q880 1146 853 1130Q835 1118 816 1118Q794 1118 783 1135ZM1033 1073H1185L957 0H805L844 181Q797 92 702 32T494 -29Q364 -29 291 54T217 308Q217 407 243 532L358 1073H509L394 532Q373 434 373 356Q373 240 419 174T563 108Q695 108 787 228T918
533L1033 1073Z" />
<glyph unicode="&#xfa;" glyph-name="uacute" horiz-adv-x="1064" d="M691 1218L964 1532Q996 1565 1031 1565Q1056 1565 1073 1548Q1091 1533 1093 1504Q1093 1499 1091 1491Q1086 1467 1065 1444L765 1154Q748 1137 725 1137Q705 1137 691 1148Q676 1163 676
1182Q676 1183 676 1186T677 1192Q681 1206 691 1218ZM1033 1073H1185L957 0H805L844 181Q797 92 702 32T494 -29Q364 -29 291 54T217 308Q217 407 243 532L358 1073H509L394 532Q373 434 373 356Q373 240 419 174T563 108Q695 108 787 228T918 533L1033 1073Z"
/>
<glyph unicode="&#xfb;" glyph-name="ucircumflex" horiz-adv-x="1064" d="M1124 1196H936L826 1409L623 1198H437L786 1540H917L1124 1196ZM1033 1073H1185L957 0H805L844 181Q797 92 702 32T494 -29Q364 -29 291 54T217 308Q217 407 243 532L358 1073H509L394
532Q373 434 373 356Q373 240 419 174T563 108Q695 108 787 228T918 533L1033 1073Z" />
<glyph unicode="&#xfc;" glyph-name="udieresis" horiz-adv-x="1064" d="M937 1284Q945 1322 979 1350T1051 1378Q1084 1378 1105 1357T1127 1299Q1127 1298 1125 1284Q1117 1245 1083 1217T1011 1189Q978 1189 957 1210T935 1265Q935 1270 937 1284ZM466 1282Q474
1320 508 1348T580 1376Q613 1376 634 1355T656 1301Q656 1294 654 1282Q646 1243 612 1215T540 1187Q506 1187 485 1209T464 1268Q464 1274 466 1282ZM1033 1073H1185L957 0H805L844 181Q797 92 702 32T494 -29Q364 -29 291 54T217 308Q217 407 243 532L358 1073H509L394
532Q373 434 373 356Q373 240 419 174T563 108Q695 108 787 228T918 533L1033 1073Z" />
<glyph unicode="&#xfd;" glyph-name="yacute" horiz-adv-x="1064" d="M692 1205L965 1519Q997 1552 1032 1552Q1057 1552 1074 1535Q1092 1520 1094 1491Q1094 1486 1092 1478Q1087 1454 1066 1431L766 1141Q749 1124 726 1124Q706 1124 692 1135Q677 1150 677
1169Q677 1170 677 1173T678 1179Q682 1193 692 1205ZM953 -18Q932 -117 877 -200T748 -336T594 -419T435 -449Q221 -449 109 -275L233 -190Q308 -313 463 -313Q512 -313 563 -296T661 -246T746 -158T798 -33L844 181Q797 92 702 32T494 -29Q364 -29 291 54T217
308Q217 407 243 532L358 1073H509L394 532Q373 434 373 356Q373 240 419 174T563 108Q695 108 787 228T918 533L1033 1073H1185L953 -18Z" />
<glyph unicode="&#xfe;" glyph-name="thorn" horiz-adv-x="1003" d="M281 0H129L438 1454H590L517 1112Q593 1196 664 1240T834 1284Q973 1284 1042 1184T1111 922Q1111 830 1090 733Q1071 643 1043 565T970 412T868 283T731 197T557 164Q511 164 473 179T412
216T374 259T352 296L347 311L281 0ZM937 729Q957 826 957 904Q957 1016 920 1082T815 1149Q762 1149 704 1119T592 1037T495 903T431 729Q414 648 414 576Q414 444 468 372T596 299Q710 299 802 412T937 729Z" />
<glyph unicode="&#xff;" glyph-name="ydieresis" horiz-adv-x="1064" d="M943 1313Q951 1351 985 1379T1057 1407Q1090 1407 1111 1386T1133 1328Q1133 1327 1131 1313Q1123 1274 1089 1246T1017 1218Q984 1218 963 1239T941 1294Q941 1299 943 1313ZM472 1311Q480
1349 514 1377T586 1405Q619 1405 640 1384T662 1330Q662 1323 660 1311Q652 1272 618 1244T546 1216Q512 1216 491 1238T470 1297Q470 1303 472 1311ZM953 -18Q932 -117 877 -200T748 -336T594 -419T435 -449Q221 -449 109 -275L233 -190Q308 -313 463 -313Q512
-313 563 -296T661 -246T746 -158T798 -33L844 181Q797 92 702 32T494 -29Q364 -29 291 54T217 308Q217 407 243 532L358 1073H509L394 532Q373 434 373 356Q373 240 419 174T563 108Q695 108 787 228T918 533L1033 1073H1185L953 -18Z" />
</font>
</defs>
</svg>
